<svg width="176" height="49" fill="none" xmlns="http://www.w3.org/2000/svg"><path d="M7.498 32.116H23.05V38H.174V2.453h7.324v29.663zm31.47 6.372c-3.874 0-7.032-1.188-9.473-3.564-2.425-2.377-3.638-5.542-3.638-9.497v-.684c0-2.653.513-5.021 1.538-7.104 1.026-2.1 2.474-3.711 4.346-4.834 1.888-1.14 4.037-1.71 6.446-1.71 3.613 0 6.453 1.14 8.52 3.419 2.083 2.278 3.125 5.51 3.125 9.692v2.88H33.011c.228 1.726.911 3.11 2.05 4.151 1.156 1.042 2.613 1.563 4.37 1.563 2.719 0 4.843-.985 6.373-2.954l3.466 3.881c-1.057 1.498-2.49 2.67-4.296 3.516-1.807.83-3.809 1.245-6.006 1.245zm-.806-21.68c-1.4 0-2.539.473-3.418 1.417-.862.944-1.416 2.294-1.66 4.052h9.814v-.561c-.032-1.563-.455-2.767-1.27-3.614-.813-.862-1.968-1.293-3.466-1.293zm25.244 12.574l4.908-17.798h7.373L66.774 38h-6.738l-8.911-26.416h7.373l4.907 17.798zm27.222 9.106c-3.874 0-7.031-1.188-9.473-3.564-2.425-2.377-3.637-5.542-3.637-9.497v-.684c0-2.653.512-5.021 1.538-7.104 1.025-2.1 2.474-3.711 4.345-4.834 1.888-1.14 4.037-1.71 6.446-1.71 3.613 0 6.453 1.14 8.52 3.419 2.084 2.278 3.125 5.51 3.125 9.692v2.88H84.671c.228 1.726.911 3.11 2.05 4.151 1.156 1.042 2.613 1.563 4.37 1.563 2.719 0 4.843-.985 6.373-2.954l3.467 3.881c-1.058 1.498-2.49 2.67-4.297 3.516-1.807.83-3.809 1.245-6.006 1.245zm-.806-21.68c-1.4 0-2.539.473-3.418 1.417-.862.944-1.416 2.294-1.66 4.052h9.815v-.561c-.033-1.563-.456-2.767-1.27-3.614-.814-.862-1.97-1.293-3.467-1.293zM112.967 38h-7.08V.5h7.08V38zM146.17 2.453v23.413c0 3.89-1.221 6.966-3.662 9.229-2.425 2.262-5.746 3.393-9.961 3.393-4.151 0-7.446-1.098-9.888-3.296-2.441-2.197-3.686-5.216-3.735-9.057V2.453h7.324v23.462c0 2.328.553 4.028 1.66 5.103 1.123 1.057 2.669 1.587 4.639 1.587 4.118 0 6.209-2.165 6.274-6.495V2.453h7.349zm29.321 22.583c0 4.07-.928 7.332-2.783 9.79-1.839 2.442-4.329 3.662-7.471 3.662-2.669 0-4.826-.928-6.469-2.783v12.451h-7.056V11.584h6.543l.244 2.588c1.709-2.05 3.939-3.076 6.689-3.076 3.256 0 5.787 1.204 7.593 3.613 1.807 2.409 2.71 5.73 2.71 9.96v.367zm-7.055-.513c0-2.457-.44-4.353-1.319-5.688-.862-1.335-2.124-2.002-3.784-2.002-2.214 0-3.735.846-4.565 2.54v10.814c.862 1.742 2.4 2.613 4.614 2.613 3.369 0 5.054-2.759 5.054-8.277z" fill="#613267"/></svg>