<svg xmlns="http://www.w3.org/2000/svg" viewBox="0 0 415.999 415.999"><path d="M335.999 64h-44.423c-5.926-6.583-13.538-11.62-22.284-14.136-7.368-2.118-13.038-7.788-15.156-15.156C248.371 14.664 229.898 0 208 0c-21.898 0-40.37 14.664-46.136 34.707-2.121 7.376-7.805 13.039-15.181 15.164-8.738 2.518-16.342 7.55-22.262 14.129H80c-17.673 0-32 14.327-32 32v287.999c0 17.673 14.326 32 31.999 32h255.999c17.674 0 32-14.327 32-32V96c.001-17.673-14.326-32-31.999-32zM208.205 32c8.837 0 16 7.163 16 16 0 8.836-7.163 16-16 16s-16-7.164-16-16c0-8.837 7.163-16 16-16zm127.794 351.999H80V96h32v32h192V96h31.999v287.999z"/><path d="M268.853 188.627l-88.971 88.974-37.13-36.344-22.628 22.643 59.758 58.954 111.599-111.598z"/></svg>