<svg xmlns="http://www.w3.org/2000/svg" width="465.348" height="465.349"><path d="M360.08 384.767c-8.825 28.999-32.179 52.7-69.393 70.463-12.419 6.514-30.311 10.119-50.342 10.119-46.299 0-88.735-18.146-113.514-48.546-24.671-30.263-31.954-71.006-21.645-121.1 14.201-56.602 58.233-105.953 100.805-153.691 0 0 89.247-77.558 100.093-142.012 4.912 26.879 13.234 72.655-37.74 134.508-83.486 95.436-69.856 147.193-63.694 160.788 5.695 12.536 16.316 20.043 28.416 20.055h.006c2.79 0 5.63-.401 8.443-1.182 29.495-11.786 25.28-39.992 20.398-72.644-4.221-28.221-8.996-60.207 8.388-86.38l1.383-2.096v2.519c-.048 37.829 15.001 52.653 32.426 69.817 9.54 9.413 18.294 19.828 27.739 33.529 32.326 46.897 38.657 91.594 28.231 125.853z"/></svg>