<svg height="512pt" viewBox="0 -61 512 512" width="512pt" xmlns="http://www.w3.org/2000/svg"><path d="M497 300h-15V45c0-24.813-20.188-45-45-45H75C50.187 0 30 20.188 30 45v255H15c-8.285 0-15 6.715-15 15 0 41.355 33.645 75 75 75h362c41.355 0 75-33.645 75-75 0-8.285-6.715-15-15-15zM60 45c0-8.27 6.73-15 15-15h362c8.27 0 15 6.73 15 15v255H60zm377 315H75c-19.559 0-36.238-12.55-42.43-30.012h446.86C473.238 347.45 456.559 360 437 360zm0 0"/><path d="M175.605 94.395c-5.855-5.86-15.355-5.86-21.21 0l-60 60c-5.86 5.859-5.86 15.355 0 21.21l60 60c5.855 5.86 15.351 5.86 21.21 0 5.86-5.855 5.86-15.351 0-21.21L126.215 165l49.39-49.395c5.86-5.855 5.86-15.355 0-21.21zm182 0c-5.855-5.86-15.355-5.86-21.21 0-5.86 5.859-5.86 15.355 0 21.21L385.785 165l-49.39 49.395c-5.86 5.859-5.86 15.355 0 21.21 5.855 5.86 15.351 5.86 21.21 0l60-60c5.86-5.855 5.86-15.351 0-21.21zM290.742 60.77c-7.855-2.618-16.351 1.628-18.972 9.488l-60 180c-2.622 7.86 1.628 16.351 9.488 18.972 7.855 2.622 16.351-1.628 18.972-9.488l60-180c2.622-7.86-1.628-16.351-9.488-18.972zm0 0"/></svg>