<svg xmlns="http://www.w3.org/2000/svg" width="96.682" height="96.682"><path d="M48.343 0C21.686 0 .002 21.683.002 48.339c0 26.657 21.684 48.343 48.341 48.343 26.653 0 48.337-21.686 48.337-48.343C96.68 21.686 74.996 0 48.343 0zM5.55 48.339a42.618 42.618 0 013.706-17.413l20.412 55.925C15.394 79.916 5.55 65.279 5.55 48.339zm42.793 42.796c-4.201 0-8.255-.62-12.09-1.744l12.838-37.307 13.157 36.033c.084.211.189.406.304.59a42.699 42.699 0 01-14.209 2.428zm5.895-62.858a86.18 86.18 0 004.896-.409c2.307-.272 2.037-3.659-.271-3.523 0 0-6.932.543-11.405.543-4.203 0-11.272-.543-11.272-.543-2.305-.136-2.573 3.39-.27 3.523 0 0 2.183.272 4.486.409l6.667 18.266-9.363 28.087-15.581-46.351c2.579-.136 4.898-.408 4.898-.408 2.303-.272 2.034-3.661-.275-3.523 0 0-6.929.542-11.405.542-.806 0-1.749-.021-2.753-.052C20.238 13.219 33.392 5.549 48.343 5.549c11.142 0 21.283 4.26 28.896 11.232-.187-.009-.364-.033-.556-.033-4.202 0-7.187 3.661-7.187 7.595 0 3.525 2.031 6.51 4.203 10.034 1.629 2.853 3.527 6.514 3.527 11.803 0 3.663-1.406 7.914-3.256 13.833l-4.268 14.263-15.464-45.999zm15.616 57.049l13.07-37.79c2.445-6.104 3.254-10.986 3.254-15.328 0-1.573-.104-3.038-.288-4.4a42.517 42.517 0 015.243 20.532c0 15.786-8.559 29.568-21.279 36.986z"/></svg>