<svg width="163" height="55" fill="none" xmlns="http://www.w3.org/2000/svg"><g clip-path="url(#clip0)"><path d="M79.63 52.554a11.647 11.647 0 01-5.124 1.177c-3.167 0-5.854-1.084-8.063-3.25-2.209-2.167-3.313-4.839-3.313-8.017 0-3.177 1.105-5.85 3.313-8.017s4.896-3.25 8.063-3.25c3.165 0 5.852 1.084 8.06 3.25 2.209 2.167 3.313 4.84 3.313 8.017a10.897 10.897 0 01-2.499 7.089l2.187 2.29L81.973 55l-2.343-2.446zm-9.67-14.731c-1.22 1.196-1.83 2.743-1.83 4.642 0 1.9.61 3.447 1.83 4.643a6.201 6.201 0 002.086 1.361 6.249 6.249 0 002.46.434 8.546 8.546 0 001.531-.154l-3.156-3.312 3.594-3.157 3.499 3.684a7 7 0 00.906-3.498c0-1.9-.609-3.447-1.827-4.642a6.206 6.206 0 00-2.087-1.361 6.255 6.255 0 00-2.46-.435 6.25 6.25 0 00-2.46.433 6.201 6.201 0 00-2.086 1.36v.002zm41.419 12.659c-2.21-2.167-3.314-4.84-3.313-8.017.002-3.177 1.106-5.85 3.313-8.017 2.207-2.166 4.894-3.25 8.061-3.25s5.854 1.083 8.062 3.25c2.208 2.167 3.312 4.84 3.312 8.017 0 3.178-1.104 5.85-3.312 8.017-2.208 2.167-4.896 3.25-8.062 3.25-3.167 0-5.854-1.084-8.061-3.251zm3.515-12.66c-1.22 1.197-1.829 2.744-1.828 4.643 0 1.9.605 3.447 1.812 4.643a6.26 6.26 0 002.096 1.36 6.302 6.302 0 002.466.435 6.253 6.253 0 002.46-.434 6.205 6.205 0 002.086-1.36c1.22-1.198 1.829-2.745 1.828-4.644 0-1.898-.61-3.445-1.828-4.642a6.206 6.206 0 00-2.086-1.361 6.254 6.254 0 00-2.46-.435 6.247 6.247 0 00-2.459.434 6.2 6.2 0 00-2.087 1.36v.002zM90.911 51.72c-1.584-1.341-2.375-3.147-2.375-5.416V31.63h5v14.24c0 2.021 1.145 3.032 3.437 3.032 2.291 0 3.437-1.01 3.437-3.033V31.63h5v14.673c0 2.269-.792 4.074-2.375 5.416-1.584 1.341-3.605 2.012-6.063 2.012-2.458 0-4.478-.67-6.061-2.012zm58.339 1.578V31.63h13.593v4.768h-8.593v3.59h7.813v4.705h-7.813v3.838H163v4.767h-13.75zm-12.811 0v-16.9h-5.625V31.63h16.25v4.768h-5.625v16.9h-5zM89.997 22.801c-2.604-2.592-3.907-5.744-3.908-9.456 0-3.712 1.302-6.864 3.908-9.456C92.603 1.297 95.791.001 99.562.001s6.959 1.296 9.565 3.888c2.604 2.594 3.906 5.746 3.906 9.456 0 3.71-1.302 6.87-3.906 9.475-2.605 2.58-5.793 3.87-9.565 3.87-3.772 0-6.96-1.297-9.565-3.89v.001zM91.821 5.66c-2.083 2.101-3.125 4.663-3.126 7.686 0 3.023 1.041 5.592 3.126 7.705 2.085 2.09 4.665 3.134 7.741 3.134 3.076 0 5.656-1.051 7.741-3.153 2.085-2.1 3.127-4.663 3.126-7.686 0-3.023-1.042-5.585-3.126-7.686-2.084-2.1-4.664-3.151-7.74-3.152-3.078 0-5.658 1.05-7.742 3.151v.001zm55.454 20.589V.443h15.071v2.433h-12.467v9.142h11.536v2.434h-11.536v9.363h12.654v2.433h-15.258zm-8.561 0V4.35l-9.118 15.115h-.372L120.106 4.35v21.897h-2.605V.443h3.237l8.672 14.378L138.082.443h3.238v25.804h-2.606zm-59.696 0V14.194H64.876v12.054h-2.605V.443h2.605V11.76h14.142V.443h2.606v25.804h-2.606z" fill="#C4C4C4"/><path d="M36.402 18.941H19.089v17.15h17.313v-17.15z" fill="#7095FA"/><path d="M54.824.032H37.51v17.15h17.313V.032z" fill="#E2E2E2"/><path d="M36.402 37.85H19.089V55h17.313V37.85z" fill="#7095FA"/><path d="M55.49 18.941h-36.4V55h36.4V18.941z" fill="#C4C4C4"/><path d="M17.313 37.85H0V55h17.313V37.85z" fill="#E2E2E2"/></g><defs><clipPath id="clip0"><path fill="#fff" d="M0 0h163v55H0z"/></clipPath></defs></svg>